<svg xmlns="http://www.w3.org/2000/svg" width="23.25" height="31" viewBox="0 0 23.25 31">
    <path id="prefix__file-alt" d="M13.563 8.234V0H1.453A1.45 1.45 0 000 1.453v28.094A1.45 1.45 0 001.453 31H21.8a1.45 1.45 0 001.453-1.453V9.688h-8.237a1.457 1.457 0 01-1.453-1.454zm3.875 14.289a.729.729 0 01-.727.727H6.539a.729.729 0 01-.727-.727v-.484a.729.729 0 01.727-.727h10.172a.729.729 0 01.727.727zm0-3.875a.729.729 0 01-.727.727H6.539a.729.729 0 01-.727-.727v-.484a.729.729 0 01.727-.727h10.172a.729.729 0 01.727.727zm0-4.359v.484a.729.729 0 01-.727.727H6.539a.729.729 0 01-.727-.727v-.484a.729.729 0 01.727-.727h10.172a.729.729 0 01.727.727zm5.812-6.908v.369H15.5V0h.369A1.452 1.452 0 0116.9.424l5.928 5.934a1.448 1.448 0 01.422 1.023z" style="fill:#006ba6"/>
</svg>
