<svg xmlns="http://www.w3.org/2000/svg" width="14.832" height="13.182" viewBox="0 0 14.832 13.182">
    <path id="prefix__iconNotes" d="M10.367 2.24l2.323 2.323a.252.252 0 0 1 0 .355l-5.624 5.624-2.39.265a.5.5 0 0 1-.554-.554l.265-2.39 5.625-5.623a.252.252 0 0 1 .355 0zm4.172-.59L13.282.394a1.007 1.007 0 0 0-1.421 0l-.912.912a.252.252 0 0 0 0 .355l2.323 2.323a.252.252 0 0 0 .355 0l.912-.912a1.007 1.007 0 0 0 0-1.421zM9.888 9.012v2.621h-8.24v-8.24h5.917a.317.317 0 0 0 .219-.09l1.03-1.03a.309.309 0 0 0-.214-.528H1.236A1.236 1.236 0 0 0 0 2.981v9.064a1.236 1.236 0 0 0 1.236 1.236H10.3a1.236 1.236 0 0 0 1.236-1.236V7.982a.31.31 0 0 0-.528-.219l-1.03 1.03a.317.317 0 0 0-.09.219z" transform="translate(0 -.1)" style="fill:#fff"/>
</svg>
