<svg xmlns="http://www.w3.org/2000/svg" width="10.148" height="9.019" viewBox="0 0 10.148 9.019">
    <path id="prefix__iconNotes" d="M7.093 1.564l1.59 1.589a.172.172 0 0 1 0 .243L4.835 7.244 3.2 7.426a.343.343 0 0 1-.379-.379L3 5.412l3.85-3.848a.172.172 0 0 1 .243 0zm2.854-.4L9.088.3a.689.689 0 0 0-.973 0l-.624.625a.172.172 0 0 0 0 .243l1.59 1.589a.172.172 0 0 0 .243 0l.624-.624a.689.689 0 0 0 0-.973zM6.766 6.2v1.791H1.128V2.353h4.048a.217.217 0 0 0 .15-.062l.7-.7a.211.211 0 0 0-.15-.361H.846A.846.846 0 0 0 0 2.072v6.2a.846.846 0 0 0 .846.846h6.2a.846.846 0 0 0 .846-.846V5.493a.212.212 0 0 0-.361-.15l-.7.7a.217.217 0 0 0-.065.157z" transform="translate(0 -.1)" style="fill:#fff"/>
</svg>
