<svg xmlns="http://www.w3.org/2000/svg" width="31" height="31" viewBox="0 0 31 31">
    <path id="prefix__log-in" d="M29.063 31H17.437a1.937 1.937 0 1 1 0-3.875h9.688V3.875h-9.688a1.937 1.937 0 1 1 0-3.875h11.626A1.939 1.939 0 0 1 31 1.937v27.126A1.939 1.939 0 0 1 29.063 31zm-15.5-7.751a1.939 1.939 0 0 1-1.937-1.937 1.873 1.873 0 0 1 .581-1.376l2.5-2.5H1.937a1.937 1.937 0 1 1 0-3.875H14.7l-2.518-2.5a1.945 1.945 0 0 1 2.752-2.75l5.812 5.812a1.966 1.966 0 0 1 0 2.752l-5.812 5.812a1.929 1.929 0 0 1-1.371.562z" transform="rotate(90 15.5 15.5)" style="fill:#425a70"/>
</svg>
