<svg xmlns="http://www.w3.org/2000/svg" width="213.343" height="276.477" viewBox="0 0 213.343 276.477">
    <defs>
        <style>
            .prefix__cls-1{fill:#fff}
        </style>
    </defs>
    <g id="prefix__Layer_2" data-name="Layer 2" transform="translate(0 .01)">
        <g id="prefix__Layer_1" data-name="Layer 1" transform="translate(0 -.01)">
            <g id="prefix__groupPlanner">
                <g id="prefix__Path_15245" data-name="Path 15245">
                    <path id="prefix__Path_15266" d="M53.334 13.326a40.042 40.042 0 0 0-40 40v146.665H160a40.043 40.043 0 0 0 40-40V13.323H53.334m0-13.333h160.008V160a53.318 53.318 0 0 1-53.334 53.337H0V53.327A53.336 53.336 0 0 1 53.334-.007z" class="prefix__cls-1" data-name="Path 15266" transform="translate(0 .01)"/>
                </g>
                <g id="prefix___30" data-name="30" transform="translate(56.887 69.673)" style="isolation:isolate">
                    <path id="prefix__Path_15267" d="M196.65 291.644l12.75-1.544a12.059 12.059 0 0 0 3.28 7.455 8.982 8.982 0 0 0 6.471 2.577 8.887 8.887 0 0 0 6.867-3.089 12.016 12.016 0 0 0 2.789-8.343 11.183 11.183 0 0 0-2.673-7.874 8.519 8.519 0 0 0-6.515-2.907 22.994 22.994 0 0 0-6.049.984l1.446-10.735q5.34.145 8.155-2.314a8.251 8.251 0 0 0 2.815-6.538 7.1 7.1 0 0 0-7.559-7.6 7.946 7.946 0 0 0-5.768 2.346 10.982 10.982 0 0 0-2.893 6.844l-12.15-2.063a27.117 27.117 0 0 1 3.818-9.963 17.253 17.253 0 0 1 7.128-5.861 23.981 23.981 0 0 1 10.24-2.132q9.708 0 15.563 6.188a16.152 16.152 0 0 1 4.828 11.438q0 9.049-9.89 14.438a16.016 16.016 0 0 1 9.445 5.673 16.454 16.454 0 0 1 3.541 10.643 20.633 20.633 0 0 1-6.61 15.421 22.743 22.743 0 0 1-16.454 6.364q-9.329 0-15.468-5.369a21.055 21.055 0 0 1-7.107-14.039z" class="prefix__cls-1" data-name="Path 15267" transform="translate(-196.65 -240.876)"/>
                    <path id="prefix__Path_15268" d="M405.03 240.84q9.983 0 15.621 7.125 6.706 8.441 6.705 27.985t-6.752 28.034q-5.58 7.032-15.563 7.032a19.668 19.668 0 0 1-16.174-7.712q-6.141-7.712-6.138-27.481 0-19.411 6.749-27.938 5.569-7.045 15.552-7.045zm0 10.923a6.6 6.6 0 0 0-4.267 1.522q-1.875 1.527-2.893 5.462-1.362 5.112-1.36 17.2t1.218 16.619q1.218 4.524 3.072 6.023a6.737 6.737 0 0 0 8.508-.023q1.875-1.522 2.893-5.462 1.362-5.059 1.36-17.157t-1.218-16.616q-1.221-4.524-3.069-6.049a6.509 6.509 0 0 0-4.244-1.519z" class="prefix__cls-1" data-name="Path 15268" transform="translate(-328.901 -240.84)"/>
                </g>
            </g>
            <path id="prefix__Path_15269" d="M0 775.9h23.458l-5.464 17.623 5.464 17.62H0z" class="prefix__cls-1" data-name="Path 15269" transform="translate(0 -551.446)"/>
            <path id="prefix__Path_15270" d="M85.162 775.9h16.524l.1 35.243H85.162L74.36 793.98z" class="prefix__cls-1" data-name="Path 15270" transform="translate(-52.849 -551.446)"/>
            <path id="prefix__Path_15271" d="M209.086 776v10.645c0 4.122-1.229 4.86-5.537 4.86s-5.149-1-5.149-5.291v-1.273h3.9v1.273c0 1.27.145 1.721 1.253 1.721 1.27 0 1.446-.327 1.446-1.29V776z" class="prefix__cls-1" data-name="Path 15271" transform="translate(-141.007 -551.517)"/>
            <path id="prefix__Path_15272" d="M241.86 785.61v-4.339c0-4.738 2.954-5.641 7.119-5.641s7.116.9 7.116 5.641v4.339c0 4.738-2.954 5.641-7.116 5.641s-7.119-.902-7.119-5.641zm10.012-.451v-3.471c0-2.277-.761-2.5-2.893-2.5s-2.832.226-2.893 2.5v3.471c.061 2.3.758 2.522 2.893 2.522s2.893-.225 2.893-2.522z" class="prefix__cls-1" data-name="Path 15272" transform="translate(-171.895 -551.254)"/>
            <path id="prefix__Path_15273" d="M311.544 791.39h-4.1v-6.029h-5.355v6.029H298V776h4.1v5.786h5.355V776h4.1z" class="prefix__cls-1" data-name="Path 15273" transform="translate(-211.795 -551.517)"/>
            <path id="prefix__Path_15274" d="M357.712 791.39h-4.1V776h6.943l4.409 11.814h.165L364.872 776h4.1v15.39h-6.995l-4.339-11.814h-.165z" class="prefix__cls-1" data-name="Path 15274" transform="translate(-251.318 -551.517)"/>
            <path id="prefix__Path_15275" d="M450.775 779.454l-7.365 8.246v.124h7.365v3.567H438.2v-3.471l7.261-8.224v-.124h-6.789V776h12.1z" class="prefix__cls-1" data-name="Path 15275" transform="translate(-311.438 -551.517)"/>
            <path id="prefix__Path_15276" d="M491.795 791.39h-4.1V776h4.1z" class="prefix__cls-1" data-name="Path 15276" transform="translate(-346.612 -551.517)"/>
            <path id="prefix__Path_15277" d="M514.7 791.39h-4.1V776h6.943l4.411 11.814h.162L521.859 776h4.1v15.39h-6.992l-4.339-11.814h-.162z" class="prefix__cls-1" data-name="Path 15277" transform="translate(-362.895 -551.517)"/>
            <path id="prefix__Path_15278" d="M576.672 781.786h1.228l3.96-5.786h4.964l-5.415 7.547 5.867 7.834h-5.088l-4.287-6.02h-1.229v6.029h-4.1V776h4.1z" class="prefix__cls-1" data-name="Path 15278" transform="translate(-406.938 -551.517)"/>
            <path id="prefix__Path_15279" d="M214.938 859.5h-4.1v-6.029h-5.352v6.029h-4.1v-15.38h4.1v5.786h5.352v-5.786h4.1z" class="prefix__cls-1" data-name="Path 15279" transform="translate(-143.125 -599.932)"/>
            <path id="prefix__Path_15280" d="M256.885 856.86l-.758 2.644h-4.267l4.628-15.384h6.234l4.678 15.38h-4.2l-.8-2.644zm2.792-9.662h-.04l-1.869 6.653h3.816z" class="prefix__cls-1" data-name="Path 15280" transform="translate(-179.002 -599.932)"/>
            <path id="prefix__Path_15281" d="M313.1 859.5H309v-15.38h6.5l2.933 9.662h.142l2.792-9.662h6.653v15.38h-4.087l.411-11.794h-.144l-3.9 11.794h-3.549l-3.937-11.794h-.114z" class="prefix__cls-1" data-name="Path 15281" transform="translate(-219.613 -599.932)"/>
            <path id="prefix__Path_15282" d="M397.32 844.12h4.128l-3.408 15.38h-5.93l-2.091-9.633h-.165l-2.234 9.633h-5.867l-3.323-15.38h4.163l2.216 11.86h.145l2.893-11.86h4.264l2.751 11.86H395z" class="prefix__cls-1" data-name="Path 15282" transform="translate(-268.959 -599.932)"/>
            <path id="prefix__Path_15283" d="M459.69 853.71v-4.339c0-4.738 2.954-5.641 7.116-5.641s7.119.9 7.119 5.641v4.339c0 4.738-2.953 5.641-7.119 5.641s-7.116-.903-7.116-5.641zm10.009-.451v-3.471c0-2.277-.758-2.5-2.893-2.5s-2.829.226-2.893 2.5v3.471c.061 2.3.758 2.523 2.893 2.523s2.894-.226 2.894-2.523z" class="prefix__cls-1" data-name="Path 15283" transform="translate(-326.712 -599.655)"/>
            <path id="prefix__Path_15284" d="M515.28 844.12h7.92c3.549.064 5.291.822 5.291 4.657 0 2.563 0 4.05-2.913 4.738v.165a2.563 2.563 0 0 1 2.771 2.728v3.1h-4.1v-2.152c.043-1.157-.448-1.93-1.681-1.93h-3.182v4.074h-4.1zm7.281 7.735c1.765 0 1.7-.657 1.7-2.4 0-1.374-.35-1.765-1.7-1.765h-3.182v4.166z" class="prefix__cls-1" data-name="Path 15284" transform="translate(-366.221 -599.932)"/>
            <path id="prefix__Path_15285" d="M573.169 859.5h-4.1v-11.81h-3.939v-3.57h12.182v3.57h-4.142z" class="prefix__cls-1" data-name="Path 15285" transform="translate(-401.65 -599.932)"/>
            <path id="prefix__Path_15286" d="M625.339 859.5h-4.1v-6.029h-5.343v6.029h-4.116v-15.38h4.114v5.786h5.355v-5.786h4.1z" class="prefix__cls-1" data-name="Path 15286" transform="translate(-434.806 -599.932)"/>
            <path id="prefix__Path_15287" d="M671.546 854.112v5.388h-4.1v-5.392L662 844.12h4.7l2.748 5.93h.145l2.829-5.93h4.759z" class="prefix__cls-1" data-name="Path 15287" transform="translate(-470.498 -599.932)"/>
            <path id="prefix__Path_15288" d="M210.4 926.609l1.316.333a4.423 4.423 0 0 1-1.487 2.47 4.093 4.093 0 0 1-2.63.853 4.712 4.712 0 0 1-2.6-.657 4.073 4.073 0 0 1-1.533-1.895 6.766 6.766 0 0 1-.524-2.664 5.838 5.838 0 0 1 .593-2.708 4.05 4.05 0 0 1 1.687-1.756 4.947 4.947 0 0 1 2.41-.6 4.085 4.085 0 0 1 2.511.761 3.943 3.943 0 0 1 1.415 2.135l-1.293.307a3.087 3.087 0 0 0-1-1.579 2.679 2.679 0 0 0-1.655-.5 3.223 3.223 0 0 0-1.915.55 2.919 2.919 0 0 0-1.082 1.475 5.922 5.922 0 0 0-.312 1.909 6.075 6.075 0 0 0 .37 2.213 2.763 2.763 0 0 0 1.157 1.415 3.225 3.225 0 0 0 1.689.466 2.829 2.829 0 0 0 1.872-.636 3.263 3.263 0 0 0 1.018-1.892z" class="prefix__cls-1" data-name="Path 15288" transform="translate(-144.23 -653.849)"/>
            <path id="prefix__Path_15289" d="M241.48 925.26a5.393 5.393 0 0 1 1.331-3.876 4.51 4.51 0 0 1 3.431-1.391 4.761 4.761 0 0 1 2.479.657 4.31 4.31 0 0 1 1.686 1.834 5.994 5.994 0 0 1 .579 2.67 5.846 5.846 0 0 1-.61 2.7 4.154 4.154 0 0 1-1.736 1.805 4.918 4.918 0 0 1-2.415.616 4.713 4.713 0 0 1-2.508-.68 4.339 4.339 0 0 1-1.675-1.851 5.612 5.612 0 0 1-.561-2.488zm1.357.02a3.977 3.977 0 0 0 .966 2.829 3.376 3.376 0 0 0 4.869 0 4.229 4.229 0 0 0 .96-2.965 5.12 5.12 0 0 0-.411-2.118 3.156 3.156 0 0 0-1.2-1.4 3.249 3.249 0 0 0-1.773-.5 3.364 3.364 0 0 0-2.4.96 4.252 4.252 0 0 0-1.012 3.194z" class="prefix__cls-1" data-name="Path 15289" transform="translate(-171.625 -653.854)"/>
            <path id="prefix__Path_15290" d="M284.05 930.52v-9.94h1.979l2.346 7.038c.217.654.376 1.157.474 1.47q.168-.541.529-1.591l2.381-6.917h1.767v9.94h-1.266v-8.32l-2.893 8.32h-1.186l-2.875-8.461v8.461z" class="prefix__cls-1" data-name="Path 15290" transform="translate(-201.881 -654.274)"/>
            <path id="prefix__Path_15291" d="M328 930.509v-9.94h3.729a4.63 4.63 0 0 1 1.825.289 2.363 2.363 0 0 1 1.079.929 2.453 2.453 0 0 1 .391 1.313 2.25 2.25 0 0 1-.347 1.2 2.476 2.476 0 0 1-1.044.909 2.6 2.6 0 0 1 1.389.9 2.419 2.419 0 0 1 .483 1.5 2.91 2.91 0 0 1-.289 1.3 2.522 2.522 0 0 1-.729.926 3.069 3.069 0 0 1-1.088.492 6.654 6.654 0 0 1-1.6.165zm1.3-5.768h2.149a4.871 4.871 0 0 0 1.255-.116 1.371 1.371 0 0 0 .755-.495 1.423 1.423 0 0 0 .255-.868 1.585 1.585 0 0 0-.237-.868 1.2 1.2 0 0 0-.677-.515 5.651 5.651 0 0 0-1.513-.142H329.3zm0 4.588h2.476a5.691 5.691 0 0 0 .894-.046 2.161 2.161 0 0 0 .761-.272 1.415 1.415 0 0 0 .5-.552 1.736 1.736 0 0 0 .2-.836 1.661 1.661 0 0 0-.289-.966 1.5 1.5 0 0 0-.79-.579 4.832 4.832 0 0 0-1.446-.168h-2.3z" class="prefix__cls-1" data-name="Path 15291" transform="translate(-233.117 -654.263)"/>
            <path id="prefix__Path_15292" d="M370.732 920.58h1.316v5.742a6.816 6.816 0 0 1-.338 2.381 2.942 2.942 0 0 1-1.224 1.446 4.339 4.339 0 0 1-2.314.552 4.773 4.773 0 0 1-2.285-.483 2.733 2.733 0 0 1-1.267-1.391 6.624 6.624 0 0 1-.382-2.494v-5.753h1.316v5.736a5.646 5.646 0 0 0 .24 1.909 1.846 1.846 0 0 0 .827.946 2.893 2.893 0 0 0 1.446.33 2.738 2.738 0 0 0 2.068-.657 3.794 3.794 0 0 0 .616-2.528z" class="prefix__cls-1" data-name="Path 15292" transform="translate(-258.868 -654.274)"/>
            <path id="prefix__Path_15293" d="M401.26 926.9l1.238-.107a2.794 2.794 0 0 0 .411 1.224 2.245 2.245 0 0 0 1 .772 3.782 3.782 0 0 0 1.524.289 3.635 3.635 0 0 0 1.331-.226 1.84 1.84 0 0 0 .868-.613 1.42 1.42 0 0 0 .289-.85 1.293 1.293 0 0 0-.269-.816 2.024 2.024 0 0 0-.9-.578 17.512 17.512 0 0 0-1.767-.486 8.992 8.992 0 0 1-1.921-.619 2.714 2.714 0 0 1-1.062-.926 2.277 2.277 0 0 1-.347-1.238 2.537 2.537 0 0 1 .393-1.409 2.653 2.653 0 0 1 1.25-.992 4.681 4.681 0 0 1 1.822-.341 4.986 4.986 0 0 1 1.95.356 2.835 2.835 0 0 1 1.3 1.05 3.02 3.02 0 0 1 .489 1.565l-1.261.1a2.042 2.042 0 0 0-.688-1.423 2.659 2.659 0 0 0-1.736-.483 2.773 2.773 0 0 0-1.736.437 1.316 1.316 0 0 0-.547 1.056 1.137 1.137 0 0 0 .388.882 5.242 5.242 0 0 0 1.982.706 13.057 13.057 0 0 1 2.2.636 3.029 3.029 0 0 1 1.281 1.013 2.473 2.473 0 0 1 .414 1.415 2.713 2.713 0 0 1-.454 1.493 2.988 2.988 0 0 1-1.307 1.094 4.531 4.531 0 0 1-1.915.391 5.74 5.74 0 0 1-2.259-.393 3.182 3.182 0 0 1-1.432-1.183 3.361 3.361 0 0 1-.532-1.788z" class="prefix__cls-1" data-name="Path 15293" transform="translate(-285.184 -653.852)"/>
            <path id="prefix__Path_15294" d="M439.495 930.555v-8.768h-3.275v-1.157h7.88v1.157h-3.289v8.768z" class="prefix__cls-1" data-name="Path 15294" transform="translate(-310.031 -654.309)"/>
            <path id="prefix__Path_15295" d="M472.88 930.52v-9.94h1.32v9.94z" class="prefix__cls-1" data-name="Path 15295" transform="translate(-336.086 -654.274)"/>
            <path id="prefix__Path_15296" d="M488 925.259a5.393 5.393 0 0 1 1.331-3.876 4.51 4.51 0 0 1 3.442-1.391 4.762 4.762 0 0 1 2.479.657 4.31 4.31 0 0 1 1.686 1.834 5.994 5.994 0 0 1 .579 2.67 5.845 5.845 0 0 1-.61 2.7 4.154 4.154 0 0 1-1.736 1.805 4.918 4.918 0 0 1-2.415.616 4.712 4.712 0 0 1-2.508-.68 4.339 4.339 0 0 1-1.675-1.851 5.612 5.612 0 0 1-.573-2.484zm1.357.02a3.977 3.977 0 0 0 .966 2.829 3.376 3.376 0 0 0 4.869 0 4.229 4.229 0 0 0 .96-2.965 5.12 5.12 0 0 0-.411-2.118 3.156 3.156 0 0 0-1.2-1.4 3.249 3.249 0 0 0-1.773-.5 3.364 3.364 0 0 0-2.4.96 4.284 4.284 0 0 0-1 3.2z" class="prefix__cls-1" data-name="Path 15296" transform="translate(-346.832 -653.852)"/>
            <path id="prefix__Path_15297" d="M530.7 930.52v-9.94h1.348l5.207 7.81v-7.81h1.261v9.94h-1.348l-5.221-7.811v7.811z" class="prefix__cls-1" data-name="Path 15297" transform="translate(-377.18 -654.274)"/>
            <path id="prefix__Path_15298" d="M571.313 936.15a2.911 2.911 0 0 1 1.391.367 2.581 2.581 0 0 1 1.059 1.047 2.85 2.85 0 0 1 0 2.829 2.65 2.65 0 0 1-1.047 1.05 2.847 2.847 0 0 1-2.818 0 2.638 2.638 0 0 1-1.05-1.05 2.829 2.829 0 0 1 0-2.829 2.6 2.6 0 0 1 1.059-1.047 2.921 2.921 0 0 1 1.406-.367zm0 .472a2.424 2.424 0 0 0-1.157.3 2.2 2.2 0 0 0-.868.868 2.343 2.343 0 0 0 0 2.358 2.213 2.213 0 0 0 .868.868 2.363 2.363 0 0 0 2.349 0 2.19 2.19 0 0 0 .868-.868 2.361 2.361 0 0 0 0-2.358 2.2 2.2 0 0 0-.882-.868 2.43 2.43 0 0 0-1.177-.3zm-1.244 3.928v-3.05h1.047a2.516 2.516 0 0 1 .778.084.74.74 0 0 1 .382.289.778.778 0 0 1 .145.446.812.812 0 0 1-.24.578.946.946 0 0 1-.631.289.819.819 0 0 1 .258.162 3.507 3.507 0 0 1 .451.6l.37.6h-.6l-.272-.48a2.452 2.452 0 0 0-.515-.709.63.63 0 0 0-.393-.1h-.289v1.293zm.492-1.715h.6a.94.94 0 0 0 .579-.127.411.411 0 0 0 .156-.339.388.388 0 0 0-.075-.24.431.431 0 0 0-.208-.159 1.449 1.449 0 0 0-.492-.055h-.558z" class="prefix__cls-1" data-name="Path 15298" transform="translate(-404.024 -665.34)"/>
        </g>
    </g>
</svg>
