<svg xmlns="http://www.w3.org/2000/svg" id="prefix__world_background" width="1920" height="1080" viewBox="0 0 1920 1080">
    <defs>
        <radialGradient id="prefix__radial-gradient" cx=".5" cy=".5" r=".387" gradientTransform="matrix(1 0 0 1.783 0 -.391)" gradientUnits="objectBoundingBox">
            <stop offset="0" stop-color="#01aef0"/>
            <stop offset="1" stop-color="#167abf"/>
        </radialGradient>
        <style>
            .prefix__cls-2{fill:#0c90d4}
        </style>
    </defs>
    <path id="prefix__Path_15341" fill="url(#prefix__radial-gradient)" d="M0 0h1920v1080H0z" data-name="Path 15341"/>
    <g id="prefix__Layer_2" data-name="Layer 2" transform="translate(1164.938 226)">
        <g id="prefix___ÎÓÈ_1" data-name="—ÎÓÈ_1">
            <path id="prefix__Path_15299" d="M1626.935.143l-.725-.013z" class="prefix__cls-2" data-name="Path 15299" transform="translate(-1275.149 -.102)"/>
            <path id="prefix__Path_15301" d="M1909.663 734.057c-7.988 4.102 8.087-4.145 0 0z" class="prefix__cls-2" data-name="Path 15301" transform="translate(-1495.611 -574.649)"/>
            <path id="prefix__Path_15303" d="M1812.44 265.971c1.185-1.159-5.356-11.532-9.373-9.611-5.129 2.452-1.8 15.778 3.342 15.493z" class="prefix__cls-2" data-name="Path 15303" transform="translate(-1411.818 -200.833)"/>
            <path id="prefix__Path_15304" d="M1553.039 299.753c2.146 2.1 4.635.538 7.489-.145a2.423 2.423 0 0 1 2.912 3.044c-1.008 3.109-5.451 4.067-4.773 7.964 1.63 9.386 10.725 9.479 18.116 7.8 7-1.593 14.513-12.229 5.934-14.854a2.437 2.437 0 0 0-2.241.432 2.32 2.32 0 0 0-.844 1.369 3.328 3.328 0 0 1-6.161 1.334c-2.649-4.482-4.71-5.952-2.858-10.578a4.233 4.233 0 0 0-4.1-5.829c-4.479.259-8.113 2.912-12.929 5.647a2.435 2.435 0 0 0-.545 3.816z" class="prefix__cls-2" data-name="Path 15304" transform="translate(-1217.228 -227.613)"/>
            <path id="prefix__Path_15305" d="M1859.99 305.993c.179-1.114-1.552-5.613-3.417-5.263-3.972.743-2.3 8.031-2.247 11.517.094 6.578 5.489-5.247 5.664-6.254z" class="prefix__cls-2" data-name="Path 15305" transform="translate(-1453.709 -235.794)"/>
            <path id="prefix__Path_15306" d="M1777.21 864.466c1.701.677 1.818-1.898 0 0z" class="prefix__cls-2" data-name="Path 15306" transform="translate(-1393.552 -677.29)"/>
            <path id="prefix__Path_15307" d="M1764.908 1916.42a151.953 151.953 0 0 1 6.865-20.057c2.994-7.411 10.531-13.348.132-19.606-10.923-6.573-25.856-6.746-36-13.993-6.181-4.417-5.047-9.552-10.2-14.274-4.667-4.274-8.726-4.033-14.172-6.792-8.747-4.43-15.923-11.849-25.065-15.146-4.365-1.572-18.11-3.985-23.695-3.778-10.271.38-14.248 9.859-23.716 9.229 6.964 18.168-1.265 17.27-6.744 31.779-4.246 11.226 2.536 20.014 8.123 28.928 6.813 10.854 13.879 15.783 21.467 24.914 8.937 10.757 5.2 24.61 4.924 37.994-.475 23.017.164 46.051.486 66.909.153 10.017 14.61 60.5 32.112 38.327-3.482-2.431-8.238-6.571-9.665-10.749-2.677-7.826 3.046-9.853 2.856-16.43-.147-5.01-1.271-9.851-1.727-14.619-.781-8.089 8.091-6.668 1.757-15.733q9.052.382 8.827-8.952a82.611 82.611 0 0 1 8.834-2.4c2.649-4.1 1.807-10.52 4.482-13.982q5.576 1.995 8.737-2.834 2.849-4.391 5.613-8.831c3.866-6.14 4.989-14.846 8.588-20.144 9.889-14.58 21.737-9.858 27.181-29.76z" class="prefix__cls-2" data-name="Path 15307" transform="translate(-1278.892 -1429.27)"/>
            <path id="prefix__Path_15308" d="M1801.787 441.372c-.527-.244-8.342-4.533-6.006.851 1.755 4.045 3.593 1.504 6.006-.851z" class="prefix__cls-2" data-name="Path 15308" transform="translate(-1407.773 -344.64)"/>
            <path id="prefix__Path_15309" d="M1758.59 1699.774a10.725 10.725 0 0 0-2.97 4.318 13.146 13.146 0 0 0 13.248-1.146q-4.06-5.346-10.278-3.172z" class="prefix__cls-2" data-name="Path 15309" transform="translate(-1376.622 -1332.34)"/>
            <path id="prefix__Path_15310" d="M1605.61 1651.985c9.777-2.114 19.321 12.521 27.416 7.18-4.056-4.158-9.645-6.3-15.053-8.337-7.098-2.672-7.303-.628-12.363 1.157z" class="prefix__cls-2" data-name="Path 15310" transform="translate(-1258.996 -1293.444)"/>
            <path id="prefix__Path_15311" d="M1352.16 531.384c.145.026.287.045.432.073a.971.971 0 0 0-.432-.073z" class="prefix__cls-2" data-name="Path 15311" transform="translate(-1060.26 -416.669)"/>
            <path id="prefix__Path_15312" d="M1825.21 448.05c.026.024.03.024 0 0z" class="prefix__cls-2" data-name="Path 15312" transform="translate(-1431.19 -351.326)"/>
            <path id="prefix__Path_15313" d="M2647.4 1554.529c1.671 6.3 7.463 10.183 10.006 16.67a317.143 317.143 0 0 0 19.14-108.832q0-7.016-.3-13.965-2.416 1.481-7.038-2.977a60.483 60.483 0 0 0-10.416-5.848 11.215 11.215 0 0 1-8.8-3.59q2.083-7.8-4.622-11.141c-10.9-7.383-49.289 8.4-55.137 16.553-4.715 6.563-6.36 10.381-11.845 16.765-6.183 7.2-10.526 12.873-12.415 22.2-3.67 18.16 3.184 36.444 19.049 47.147 15.368 10.362 30.337-1.559 46.368.81 0 .063 15.759 7.262 16.34 8.29 2.406 4.303-1.706 12.754-.33 17.918z" class="prefix__cls-2" data-name="Path 15313" transform="translate(-2011.273 -1115.753)"/>
            <path id="prefix__Path_15315" d="M3211.05 1582.49v.538c.009-.18.002-.359 0-.538z" class="prefix__cls-2" data-name="Path 15315" transform="translate(-2517.859 -1240.867)"/>
            <path id="prefix__Path_15316" d="M1974.8 197.634l.091-.05c-.091-.055-.126-.036-.091.05z" class="prefix__cls-2" data-name="Path 15316" transform="translate(-1548.476 -154.906)"/>
            <path id="prefix__Path_15317" d="M1755.415 378.708c-2-2.819-9.429-1.123-12.8-1.565-.6 5.539 1.593 9.5 4.786 13.9 4.359-1.403 11.306-7.7 8.014-12.335z" class="prefix__cls-2" data-name="Path 15317" transform="translate(-1366.349 -295.64)"/>
            <path id="prefix__Path_15318" d="M1697.228 262.358c-2.129-3.022-18.134 7.033-10.794 10.289 3.745 1.662 13.22-6.847 10.794-10.289z" class="prefix__cls-2" data-name="Path 15318" transform="translate(-1320.872 -205.282)"/>
            <path id="prefix__Path_15319" d="M1581.86 3211l.68.013z" class="prefix__cls-2" data-name="Path 15319" transform="translate(-1240.373 -2517.82)"/>
            <path id="prefix__Path_15320" d="M879.2 707c-16.892-2.416-4.533-10.556-11.051-18.634-10.114-12.555-17.758 2.489-9.557-21.97-11.828-4.965-11.895 12.922-24.435 9.067-10.835-3.329-11.441-23.863-5.613-31.373 5.077-6.554 9.848-5.475 16.767-7.206.989-.248 13.522-3.022 15.042-2.768 12.894 2.23 8.009 8.737 16.338 15.4 5.744 4.6 3.454-18.065 8.175-23.746 7.092-8.506 12.348-13.684 18.6-22.883 2.787-4.1 6.407-6 9.522-9.268-.1.106 8.59-10.017 8.788-10.114 10.88-5.354 21.4 2.269 30.97-9.283-3.035-1.034-8.579 1.051-10.686-2.357-.015-.024-6.006-12.171-5.9-13.5.024-.024 24.722-1.9 27.535-2.936a36.486 36.486 0 0 0-6.079 11.657c6.234 2.034 11.124 4.091 17.678 4.024-.3-.689-8.02-13.887-7.97-13.62-1.015-5.509 2.278-10.114-.11-16.068-1.85-4.609-6.876-6.157-8.987-10.673-2.973-6.353-2.919-14.628-5.25-21.357-21.944 21.879-7.713-21.357-29.646-15.528-6.832 1.816-8.13 15.975-9.714 22.086-2.483 9.544-3.391 14.431-10.021 22.32-6.975 8.3.712 10.938-8.182 2.141l-.071-8.946-6.017-3.325c-2.9-3.294-7.715-5.438-10.928-8.536-18.319-17.665.9-34.236 22.041-42.014 3.422 10.289.369 5.736 13.51 7.873 1.375-6.921-7.316-9.572-6.338-16.247 17.149-.805 10.938-20.539 22.833-20.988 5.248-.2 14.4 10.3 13.531 16.566-.93 6.738-10.146 9.268-13 12.566a13.689 13.689 0 0 0-5.162.863q-2.744 6.276 4.231 4.7c.019.035 11.99 11.539 13.462 12.247 19.269 9.255 7.361-13.564 10.958-17.918-.464.563 17.646 10.032 15.694-3.594q-4.281-4.976-8.56-9.956-6.075-3.886.158-9.181c-2.59-6.908-6.422-10.934-10.049-17.521-2.355-4.277-2.875-12.352-6.6-15.5-9.432-7.968-29.025-4.21-33.228 6.932-3.072 8.145 11.78 30.007-6.025 28.8q2.528-8.678-6.016-13.721l2.66-8.607c1.25-11.163 8.542-9.246 9.93-15.526.876-3.929 8.2-5.4.678-8.46-6.476-2.632-9.041 3.262-12.2 8.031-4.454-4.667 4.5-15.368-8.316-8.56-9.373 4.98-8.145 15.712 1.956 17.741-4.443 10.695-24.925 38.5-32.019 13.384.322 0-.047.035-.091-.313 21.1 6.36 10.127-20.843 21.51-33.167-6.884-6.124-12.268 8.069-21.588.466-6.573-5.367-2.064-15.6-12.631-17.8-6.409-1.334-15.543 5.483-17.961 11.685-5.526 14.168 2.062 8.525 10.487 7.087-2.1 12.927-.687 8.944 6.578 14.975-1.74-1.444-10.854 1.511-9.371 8.089 1.658 7.34 9.028 8.443 15.211 8.756 1.667 10.863-9.958 5.775-17.27 2.69 3.866-9.283-4.533-11.75-12-17.462 1.079.827-12.089-7.441-11.122-7.687a54.6 54.6 0 0 0-19.066-.194q-10.408 6.1-13.32-3.938c-4.827-2.375-12.586-9.2-16.815-12.437-9.453-7.247-11.077-14.133-22.581-14.438-7.612-.2-13.5 4.985-20.029 7.556-4.762 1.872-10.815 1.669-13.168 6.183-2.565 4.926 3.691 12.972.945 17.171-3.938 6.023-18.93-10.146-19.932 6.951-.514 8.786 11.657 6.88 11.5 8.508-.95 10-8.6 4.175-14.863 8.016-10.917 6.692-11.441 15.709-5.861 25.452 3.538 6.178 8.471 6.8 6.364 14.032-1.837 6.329-17 9.784-21.244 13.961 10.951-1.172 18.816-8.309 27.848-10.645l.33-.263c5.4-4.413 9.512-10.861 16.154-13.216 1.6 8.19 2.375 2.079 8.635 2.858 9.812 1.22-2.431-5.891 11.657-.648 9.455 3.525 13.8 11.891 17.164 20.292 2.884 7.191 6.435 15.314 8.8 22.667.971 3.022 1.207 8.579 1.688 11.99a10.146 10.146 0 0 1-.3 8.035q-3.277 7.124 4.285 12.318c1.427 12.737-6.623 23.233-7.681 35.443-1.019 11.774 2.968 21.076 7.987 30.87 2.277 4.451 18.464 43.307 23.962 40.71-2.018-5.244-13.168-21.914-8.993-27.339 8.447 9.788 16 24.357 22.095 35.883 5.678 10.725-.274 5.9 9.661 13.384 3.994 3.007 10.794 5.362 15.543 6.737 10.071 2.9 20.416 4 30.134 10.559 6.592 4.449 16.293 25.245 24.022 11.709z" class="prefix__cls-2" data-name="Path 15320" transform="translate(-522.399 -304.109)"/>
            <path id="prefix__Path_15322" d="M2543.489 845.644c10.906-8.182-19.168-10.975-21.73-8.357-10.059 10.276 13.153 14.79 21.73 8.357z" class="prefix__cls-2" data-name="Path 15322" transform="translate(-1975.424 -655.791)"/>
            <path id="prefix__Path_15323" d="M.145 1627.02c0-.274-.011-.546-.015-.82.004.272.011.544.015.82z" class="prefix__cls-2" data-name="Path 15323" transform="translate(-.102 -1275.141)"/>
            <path id="prefix__Path_15324" d="M.543 1647.216V1647c-.004.069 0 .142 0 .216z" class="prefix__cls-2" data-name="Path 15324" transform="translate(-.424 -1291.451)"/>
            <path id="prefix__Path_15325" d="M.52 1563.466v-.216a1.8 1.8 0 0 1 0 .216z" class="prefix__cls-2" data-name="Path 15325" transform="translate(-.408 -1225.781)"/>
            <path id="prefix__Path_15326" d="M.13 1582.02c0-.274 0-.546.015-.82-.004.283-.011.555-.015.82z" class="prefix__cls-2" data-name="Path 15326" transform="translate(-.102 -1239.856)"/>
            <path id="prefix__Path_15327" d="M3211.05 1626.788v-.538c.009.179.002.358 0 .538z" class="prefix__cls-2" data-name="Path 15327" transform="translate(-2517.859 -1275.18)"/>
            <path id="prefix__Path_15331" d="M2699.029 1025.106c11.064-8.467 7.271-20.867 23.768-24.193 10.269-2.072 10.379-1 18.755 7.832 4.918 5.181 9.322 5.7 11.485 13.557 9.773-16.463-11.763-13.758-12.521-28.064 4.859 1.22 12.434 5.645 16.905 9.848a315.391 315.391 0 0 0-12.8-47.493q-1.14-3.212-2.349-6.39l-.123-.328A316.925 316.925 0 0 0 2725.6 913.5c-3.914 5.63-8.419 4.611-8.993 13.447-.864 13.44 6.457 13.784 15.493 8.225 1.854 4.38 1.511 13.6 2.731 17.514-1.377-2.273-2.77-5.378-5.211-9.125-5.965 2.968-1 8.538-3.353 12.365-3.62 5.874-1.062-1.159-7.959 6.476-8.182 9.067-15.368 14.285-26.553 19.166 3.94 3.853 12.851 12.361 6.567 18.878-3.918 4.061-14.68-3.886-19.146.982-11.916 13.01 4.48 35.446 19.853 23.678z" class="prefix__cls-2" data-name="Path 15331" transform="translate(-2097.596 -716.297)"/>
            <path id="prefix__Path_15332" d="M1953.482 328.86c8.033-6.235 39.844-14.492 41.336-24.327a.725.725 0 0 1 .445-.559c7.728-3.158 9.2-36.146 10.166-43.624a.766.766 0 0 1 .5-.624l.471-.179a.777.777 0 0 0 .248-1.3 318.627 318.627 0 0 0-125.209-70.272.788.788 0 0 0-.725.155c-7.258 6.273 3.48 9.384 6.759 16.139 3.838 7.908-12.15-9.818-14.9-13.561a.779.779 0 0 0-1.051-.188c-11.057 7.061-21.8 28.349-5.315 32.282a.781.781 0 0 1 .484 1.17c-6.925 11.126-9.132 5.485-18.827 7.586a9.368 9.368 0 0 1-2.414.22.777.777 0 0 0-.775 1.062 30.475 30.475 0 0 1 1.6 6.437c1.58 9.84-10.5 9.971 8.456 15.424 4.562 1.31 20.569 3.847 15.388-6.446-2.53-5.028-19.645.162-17.54-8.689.462-1.96 22.7 4.065 26.484 2.455 4.054-1.727 12.288-14.354 17.043-18.1 6.949-5.47 16.873-13.872 27.064-16.642a.777.777 0 0 1 .846 1.185c-3.087 4.553-3.43 12.068-5.475 13.751-4.4 3.625-11.493 1.239-15.392 4.41-7.616 6.191-2.841 4-3.56 12.076-1.565 17.544 4.475 5.412 11.5 13.168 10.187 11.226 10.876 18.755 8.147 35.719a.766.766 0 0 0 .408.816 6.6 6.6 0 0 1 3.542 4.037.775.775 0 0 1-.432.959 10.947 10.947 0 0 0-5 4.1.782.782 0 0 0-.061.753c.9 1.982 5.015 10.267 6.17 5.414-1.8 8.29-9.155 11.925-8.452 24.178.432 7.459 4.384 27.874 15.068 27.941 8.078.048 16.121-21.586 23.003-26.926z" class="prefix__cls-2" data-name="Path 15332" transform="translate(-1445.863 -147.375)"/>
            <path id="prefix__Path_15334" d="M2677.032 1109.376l-1.092 6.351c26.652-.552-.3-24.202 1.092-6.351z" class="prefix__cls-2" data-name="Path 15334" transform="translate(-2098.267 -864.669)"/>
            <path id="prefix__Path_15335" d="M2740.888 1063.471c15.612-2.768 4.838-12.195-.518-20.707-.993-1.58-4.989-19.347-10.578-11.806-4.81 6.5 1.427 13.915 6.763 17.242-5.555 7.081-7.055 17.292 4.333 15.271z" class="prefix__cls-2" data-name="Path 15335" transform="translate(-2139.143 -806.943)"/>
            <path id="prefix__Path_15338" d="M1582.358.13c-.244 0-.486 0-.727.013.245-.002.487-.011.727-.013z" class="prefix__cls-2" data-name="Path 15338" transform="translate(-1240.193 -.102)"/>
            <path id="prefix__Path_15339" d="M1626.9 3211c-.216 0-.451 0-.678.013.225.004.449-.002.678-.013z" class="prefix__cls-2" data-name="Path 15339" transform="translate(-1275.157 -2517.82)"/>
        </g>
    </g>
</svg>
